<svg version="1.1" xmlns="http://www.w3.org/2000/svg" xmlns:xlink="http://www.w3.org/1999/xlink">
    <symbol id="phone" viewBox="0 0 18 18">
        <path d="M17.5965 14.2253L14.8166 11.4452C14.2629 10.8937 13.346 10.9104 12.7731 11.4836L11.3726 12.8838C11.2841 
		12.835 11.1925 12.7841 11.0962 12.7301C10.2118 12.24 9.00139 11.5684 7.72765 10.2937C6.45014 9.01637 5.77788 7.80407 
		5.28635 6.91911C5.23448 6.82535 5.18478 6.73496 5.13571 6.64912L6.07564 5.71058L6.53774 5.24791C7.1116 4.6739 7.12742 
		3.75724 6.57503 3.20417L3.79521 0.423735C3.24282 -0.128556 2.32549 -0.111801 1.75163 0.46221L0.968183 1.25016L0.989592 
		1.27141C0.726892 1.60661 0.507371 1.99322 0.344011 2.41012C0.193423 2.80697 0.0996683 3.18566 0.0567985 3.56513C-0.310258 
		6.60811 1.0803 9.38917 4.85408 13.163C10.0706 18.3792 14.2744 17.9851 14.4558 17.9659C14.8508 17.9187 15.2293 17.8243 
		15.614 17.6749C16.0273 17.5134 16.4136 17.2942 16.7486 17.0321L16.7657 17.0473L17.5594 16.2701C18.1321 15.6962 18.1486 14.7792 17.5965 14.2253Z" />
    </symbol>
	<symbol id="arrow-bottom" viewBox="0 0 10 6">
		<path d="M4.99997 5.85012C4.82075 5.85012 4.64155 5.78169 4.50492 5.64512L0.205141 1.3453C-0.0683805 1.07178 -0.0683805 0.628311 0.205141 0.3549C0.478553 0.0814885 
		0.921933 0.0814885 1.19548 0.3549L4.99997 4.15962L8.80449 0.355033C9.07801 0.0816214 9.52135 0.0816214 9.79474 0.355033C10.0684 0.628444 10.0684 1.07191 9.79474 
		1.34543L5.49503 5.64525C5.35832 5.78185 5.17913 5.85012 4.99997 5.85012Z" />
	</symbol>
	<symbol id="header-menu-ic1" viewBox="0 0 20 20">
		<path d="M17.6562 3.08594H16.4844V1.52344H12.5781V3.08594H7.42188V1.52344H3.51562V3.08594H2.34375C1.05133 3.08594 0 4.13727 0 5.42969V16.1328C0 17.4252 
		1.05133 18.4766 2.34375 18.4766H17.6562C18.9487 18.4766 20 17.4252 20 16.1328V5.42969C20 4.13727 18.9487 3.08594 17.6562 3.08594ZM18.4375 16.1328C18.4375 
		16.5636 18.087 16.9141 17.6562 16.9141H2.34375C1.91299 16.9141 1.5625 16.5636 1.5625 16.1328V5.42969C1.5625 4.99893 1.91299 4.64844 2.34375 4.64844H17.6562C18.087 
		4.64844 18.4375 4.99893 18.4375 5.42969V16.1328ZM9.55658 10.0781H12.7579L10.6641 14.4922L9.29688 15.2734V13.7891L10.3378 11.6406H7.22656L9.25781 6.67969H10.965L9.55658 
		10.0781Z" />
	</symbol>
	<symbol id="header-menu-ic2" viewBox="0 0 20 20">
		<path d="M1.38281 0V2.34375H0.210938V20H8.41406V18.7302C9.74966 18.4579 10.7578 17.2742 10.7578 15.8594V5.3125C10.7578 4.33853 11.5627 3.51562 12.5156 
		3.51562C13.4685 3.51562 14.2734 4.33853 14.2734 5.3125V8.24219H13.1016V9.75723L11.9297 
		10.9291V14.1016H13.1016V15.2734H14.2734V14.1016H15.4453V15.2734H16.6172V14.1016H17.7891V10.9291L16.6172 9.75723V8.24219H15.4453V5.3125C15.4453 3.69293 
		14.1353 2.34375 12.5156 2.34375C10.8961 2.34375 9.58594 3.69278 9.58594 5.3125V15.8594C9.58594 16.6232 9.09613 17.2745 8.41406 17.5165V2.34375H7.24219V0H1.38281ZM16.6172 
		12.9297H13.1016V11.4146L14.2734 10.2428V9.41406H15.4453V10.2428L16.6172 11.4146V12.9297ZM2.55469 1.17188H6.07031V2.34375H2.55469V1.17188ZM7.24219 
		18.8281H1.38281V3.51562H7.24219V18.8281Z" />
		<path d="M6.07031 4.72656H2.55469V8.24219H6.07031V4.72656ZM4.89844 7.07031H3.72656V5.89844H4.89844V7.07031Z" />
		<path d="M6.07031 9.41406H2.55469V12.9297H6.07031V9.41406ZM4.89844 11.7578H3.72656V10.5859H4.89844V11.7578Z" />
		<path d="M6.07031 14.1016H2.55469V17.6172H6.07031V14.1016ZM4.89844 16.4453H3.72656V15.2734H4.89844V16.4453Z" />
	</symbol>
	<symbol id="header-menu-ic3" viewBox="0 0 20 20">
		<path d="M17.7697 8.16267V4.21676C17.7697 1.89163 15.9004 0 13.6026 0C11.3049 0 9.43556 1.89163 9.43556 4.21676V15.7832C9.43556 17.4621 
		8.09187 18.8281 6.44026 18.8281C4.78866 18.8281 3.44497 17.4621 3.44497 15.7832V11.8373C4.70656 11.6412 5.67519 10.5476 5.67519 9.23201V3.4143C5.67519 
		2.99423 5.33339 2.65243 4.91332 2.65243H4.81734V0.76187C4.81734 0.341796 4.47555 0 4.05547 0H1.61972C1.19949 
		0 0.857848 0.341796 0.857848 0.76187V2.65243H0.76187C0.341796 2.65243 0 2.99423 0 3.4143V9.23201C0 10.5626 0.990599 11.6658 2.2731 11.8435V15.7832C2.2731 
		18.1083 4.14245 20 6.44026 20C8.73793 20 10.6074 18.1083 10.6074 15.7832V4.21676C10.6074 2.53784 11.951 1.17187 13.6026 1.17187C15.2543 1.17187 16.5979 
		2.53784 16.5979 4.21676V8.15642C15.3155 8.33418 14.3248 9.43754 14.3248 10.768V16.5857C14.3248 17.0057 14.6666 17.3475 15.0866 17.3475H15.1826V19.2381C15.1826 
		19.6582 15.5244 20 15.9445 20H18.3804C18.8005 20 19.1423 19.6582 19.1423 19.2381V17.3475H19.2381C19.6583 17.3475 20 17.0057 20 16.5857V10.7681C20 9.45234 
		19.0313 8.35875 17.7697 8.16267ZM2.02972 1.17187H3.64547V2.65243H2.02972V1.17187ZM1.17187 9.23201V3.8243H4.50332V9.23201C4.50332 10.0397 3.84628 10.6968 
		3.03848 10.6968H2.63671C1.82891 10.6968 1.17187 10.0397 1.17187 9.23201ZM15.4966 10.7681C15.4966 9.96031 16.1537 9.30327 16.9615 9.30327H17.3632C18.171 
		9.30327 18.8281 9.96031 18.8281 10.7681V16.1757H15.4966V10.7681ZM17.9702 18.8281H16.3545V17.3475H17.9702V18.8281Z" />
	</symbol>
	<symbol id="header-menu-ic4" viewBox="0 0 20 20">
		<path d="M10.0146 0H9.98666C4.46905 0.00752032 0 4.4796 0 10V10.0004C0 15.4319 4.38689 20 10 20H10.0004C15.442 20 20 15.6033 20 10V9.9996C20 4.48728 15.5379 0.00752032 10.0146 0ZM16.4367 15.9754L14.7406 15.5998C14.4135 15.527 14.0897 15.7336 14.0173 16.0607C13.9449 16.3874 14.1511 16.7113 14.4782 16.7841L15.339 16.9749C13.9393 18.0488 12.2088 18.7114 10.3287 18.781L9.39271 17.3117C9.21239 17.0291 8.83759 16.9462 8.55537 17.1261C8.27275 17.306 8.18946 17.6808 8.36979 17.9634L8.84648 18.7114C6.99713 18.468 5.3277 17.6473 4.02458 16.4367L4.40019 14.7406C4.47257 14.4135 4.26636 14.0897 3.93927 14.0173C3.61258 13.9449 3.28832 14.1511 3.21595 14.4782L3.02511 15.339C1.95124 13.9393 1.28856 12.2088 1.21902 10.3287L2.68831 9.39271C2.97093 9.21239 3.05381 8.83758 2.87389 8.55497C2.69397 8.27275 2.31917 8.18946 2.03655 8.36938L1.28856 8.84608C1.53196 6.99713 2.35273 5.3273 3.56326 4.02458L5.25937 4.40019C5.58937 4.47293 5.91077 4.26414 5.98269 3.93927C6.05507 3.61218 5.84887 3.28832 5.52177 3.21595L4.66098 3.02511C6.06073 1.95124 7.79121 1.28856 9.67129 1.21902L10.6073 2.68831C10.7872 2.97081 11.1623 3.05373 11.445 2.87389C11.7272 2.69397 11.8105 2.31876 11.6306 2.03655L11.1539 1.28856C13.0029 1.53196 14.6727 2.35273 15.9754 3.56326L15.5998 5.25937C15.527 5.58646 15.7336 5.91032 16.0607 5.98269C16.3909 6.05531 16.7121 5.84664 16.7841 5.52177L16.9749 4.66098C18.0488 6.06073 18.7114 7.79121 18.781 9.67129L17.3117 10.6073C17.0291 10.7876 16.9462 11.1624 17.1261 11.4446C17.3058 11.7268 17.6807 11.8112 17.9634 11.6302L18.7114 11.1535C18.468 13.0029 17.6473 14.6723 16.4367 15.9754Z" />
		<path d="M9.99998 4.06702C6.73446 4.06702 4.06702 6.72396 4.06702 9.99999C4.06702 13.2621 6.71999 15.933 9.99998 15.933C13.2751 15.933 15.9329 13.2683 15.9329 9.99999C15.9329 6.72926 13.2721 4.06702 9.99998 4.06702ZM14.3759 11.7681L13.5523 10.8216C13.6737 10.2968 13.68 9.73063 13.5523 9.17841L14.3759 8.2319C14.8345 9.36048 14.8353 10.6377 14.3759 11.7681ZM12.8807 13.7363L12.0499 13.0134C12.4279 12.7554 12.7554 12.4279 13.0134 12.0499L13.7363 12.8808C13.4888 13.201 13.201 13.4888 12.8807 13.7363ZM8.2319 14.3759L9.17841 13.5523C9.70543 13.6742 10.2716 13.6795 10.8216 13.5523L11.7681 14.3759C10.6393 14.8346 9.36225 14.8352 8.2319 14.3759ZM6.26368 12.8808L6.9866 12.0499C7.24455 12.4279 7.57205 12.7554 7.95009 13.0134L7.11921 13.7363C6.79899 13.4888 6.51112 13.201 6.26368 12.8808ZM5.62405 8.2319L6.44764 9.17841C6.32627 9.70322 6.31996 10.2693 6.44764 10.8216L5.62405 11.7681C5.16543 10.6395 5.1647 9.3623 5.62405 8.2319ZM7.11921 6.26368L7.95009 6.98661C7.57205 7.24456 7.24455 7.57206 6.9866 7.9501L6.26368 7.11922C6.51112 6.799 6.79899 6.51113 7.11921 6.26368ZM11.7681 5.62405L10.8216 6.44765C10.2945 6.32575 9.72836 6.32045 9.17841 6.44765L8.2319 5.62405C9.36047 5.16544 10.6377 5.16471 11.7681 5.62405ZM13.7363 7.11922L13.0134 7.9501C12.7554 7.57206 12.4279 7.24456 12.0499 6.98661L12.8807 6.26368C13.201 6.51113 13.4888 6.799 13.7363 7.11922ZM9.99998 12.4328C8.65853 12.4328 7.5672 11.3422 7.5672 9.99999C7.5672 8.66056 8.65611 7.56721 9.99998 7.56721C11.3369 7.56721 12.4328 8.65276 12.4328 9.99999C12.4328 11.3396 11.3442 12.4328 9.99998 12.4328Z" />
		<path d="M9.99999 8.34232C9.08421 8.34232 8.34229 9.08812 8.34229 10C8.34229 10.9157 9.08797 11.6577 9.99999 11.6577C10.9153 11.6577 11.6577 10.9128 11.6577 10C11.6577 9.08436 10.912 8.34232 9.99999 8.34232ZM9.99999 10.4448C9.75457 10.4448 9.55524 10.2454 9.55524 10C9.55524 9.7546 9.75457 9.55527 9.99999 9.55527C10.2454 9.55527 10.4447 9.7546 10.4447 10C10.4447 10.2454 10.2454 10.4448 9.99999 10.4448Z" />
	</symbol>
	<symbol id="header-search" viewBox="0 0 20 20">
		<path d="M19.361 18.2168L14.601 13.2662C15.8249 11.8113 16.4954 9.98069 16.4954 8.07499C16.4954 3.62251 12.8729 0 8.42045 0C3.96797 0 0.345459 3.62251 
		0.345459 8.07499C0.345459 12.5275 3.96797 16.15 8.42045 16.15C10.092 16.15 11.6849 15.6458 13.0467 14.6888L17.8429 19.677C18.0434 19.8852 18.313 20 
		18.602 20C18.8755 20 19.1349 19.8957 19.3319 19.7061C19.7504 19.3034 19.7637 18.6357 19.361 18.2168ZM8.42045 2.10652C11.7115 2.10652 14.3889 4.78391 
		14.3889 8.07499C14.3889 11.3661 11.7115 14.0435 8.42045 14.0435C5.12937 14.0435 2.45198 11.3661 2.45198 8.07499C2.45198 4.78391 5.12937 2.10652 8.42045 2.10652Z" />
	</symbol>
	<symbol id="more-arrow" viewBox="0 0 18 14">
		<path d="M17.7549 6.40813L12.3984 1.05163C12.0716 0.724815 11.5415 0.724815 11.2147 1.05163C10.8878 1.37851 10.8878 1.9084 11.2147 2.23528L15.1424 
		6.16301H0.836954C0.374754 6.16301 0 6.53776 0 6.99996C0 7.46209 0.374754 7.83691 0.836954 7.83691H15.1424L11.2148 11.7646C10.888 12.0915 10.888 
		12.6214 11.2148 12.9483C11.3782 13.1116 11.5925 13.1934 11.8067 13.1934C12.0209 13.1934 12.2351 13.1116 12.3985 12.9483L17.7549 7.59179C18.0818 7.26491 
		18.0818 6.73501 17.7549 6.40813Z" />
	</symbol>
	<symbol id="address" viewBox="0 0 19 19">
		<path d="M9.49978 0C5.64311 0 2.50513 3.13799 2.50513 6.99504C2.50513 8.00111 2.71105 8.96167 3.11686 9.8503C4.86571 13.6772 8.21876 17.7176 9.20499 18.8647C9.27888 18.9504 9.38661 18.9998 9.49997 18.9998C9.61333 18.9998 9.72106 18.9504 9.79495 18.8647C10.7808 17.7178 14.1338 13.6776 15.8833 9.8503C16.2893 8.96167 16.495 8.00111 16.495 6.99504C16.4946 3.13799 13.3566 0 9.49978 0ZM9.49978 10.6283C7.49639 10.6283 5.86634 8.99823 5.86634 6.99484C5.86634 4.99126 7.49639 3.36121 9.49978 3.36121C11.5032 3.36121 13.1332 4.99126 13.1332 6.99484C13.1334 8.99823 11.5034 10.6283 9.49978 10.6283Z" />
	</symbol>
	<symbol id="mail" viewBox="0 0 19 19">
		<path d="M1.21094 7.93799V18.2422C1.21094 18.5128 1.27746 18.7662 1.38711 18.9953L6.8277 13.5547C4.74281 11.4699 3.37852 10.1055 1.21094 7.93799Z" />
		<path d="M13.1724 13.5547L18.6129 18.9953C18.7226 18.7662 18.7891 18.5128 18.7891 18.2422V7.93799C16.709 10.0181 15.2801 11.4471 13.1724 13.5547Z" />
		<path d="M10 5.9375C9.67727 5.9375 9.41406 6.20016 9.41406 6.52344C9.41406 6.84672 9.67727 7.10938 10 7.10938C10.4058 7.10938 10.5134 6.83113 10.5778 6.48309C10.5559 6.17961 10.3084 5.9375 10 5.9375Z" />
		<path d="M12.1012 14.1406H7.8989L2.2157 19.8238C2.44488 19.9335 2.6982 20 2.96878 20H17.0313C17.3019 20 17.5552 19.9335 17.7844 19.8238L12.1012 14.1406Z" />
		<path d="M1.79688 6.8667L3.55469 8.62451V5.10889L1.79688 6.8667Z" />
		<path d="M16.4453 5.10889V8.62451L18.2031 6.8667L16.4453 5.10889Z" />
		<path d="M14.5227 0H5.36742C5.01348 0 4.72656 0.286914 4.72656 0.640859V9.79645L7.89887 12.9688H12.1011L15.2734 9.79645V0.750742C15.2734 0.336133 14.9373 0 14.5227 0ZM11.1714 7.82441C10.8598 8.10531 10.4516 8.28125 10 8.28125C9.0307 8.28125 8.24219 7.49273 8.24219 6.52344C8.24219 5.55414 9.0307 4.76562 10 4.76562C10.9693 4.76562 11.7578 5.55414 11.7578 6.52344C11.7578 7.29797 12.9297 7.29797 12.9297 6.52344C12.9297 4.90809 11.6159 3.59375 10 3.59375C8.3841 3.59375 7.07031 4.90809 7.07031 6.52344C7.07031 7.52594 7.57613 8.44891 8.42414 8.9925C9.29391 9.54867 10.3708 9.60133 11.3813 9.13727C12.0798 8.81273 12.5768 9.87754 11.8711 10.2016C10.528 10.8195 9.03629 10.7757 7.79242 9.97898C6.60684 9.2191 5.89844 7.92762 5.89844 6.52344C5.89844 4.26207 7.73863 2.42188 10 2.42188C12.2614 2.42188 14.1016 4.26207 14.1016 6.52344C14.1016 8.02969 12.3106 8.85301 11.1714 7.82441Z" />
	</symbol>
	<symbol id="vk" viewBox="0 0 25 14">
		<path d="M24.8674 12.6435C24.8371 12.5795 24.8089 12.5264 24.7827 12.4838C24.349 11.7171 23.5201 10.7759 22.2966 9.66014L22.2707 9.63459L22.2578 9.62206L22.2447 9.60922H22.2316C21.6763 9.08965 21.3246 8.7403 21.1774 8.56144C20.9079 8.22073 20.8476 7.87586 20.9948 7.52642C21.0989 7.26241 21.4897 6.70485 22.1663 5.85298C22.5222 5.40152 22.8041 5.03968 23.0123 4.76708C24.5136 2.80801 25.1645 1.55614 24.9648 1.01098L24.8873 0.883578C24.8352 0.80688 24.7007 0.736714 24.484 0.672725C24.2668 0.608869 23.9892 0.598309 23.6507 0.640865L19.9021 0.666281C19.8413 0.64516 19.7546 0.647129 19.6416 0.672725C19.5288 0.698321 19.4724 0.711164 19.4724 0.711164L19.4071 0.743158L19.3553 0.781597C19.3119 0.807014 19.2642 0.851717 19.2121 0.915617C19.1602 0.979294 19.1169 1.05402 19.0822 1.13918C18.6741 2.16977 18.2101 3.12796 17.6893 4.0137C17.3682 4.54186 17.0733 4.99959 16.804 5.38715C16.5351 5.77458 16.3095 6.06003 16.1274 6.243C15.945 6.42616 15.7804 6.57289 15.6326 6.68373C15.4851 6.79461 15.3724 6.84146 15.2944 6.82432C15.2162 6.80719 15.1426 6.79018 15.0729 6.77318C14.9515 6.69648 14.8538 6.59217 14.7802 6.46017C14.7062 6.32816 14.6565 6.16201 14.6304 5.96185C14.6045 5.76156 14.5892 5.58928 14.5848 5.44443C14.5808 5.29976 14.5826 5.09513 14.5914 4.83111C14.6005 4.56697 14.6045 4.38824 14.6045 4.29454C14.6045 3.97083 14.611 3.61952 14.6239 3.2405C14.637 2.86148 14.6476 2.56118 14.6565 2.33995C14.6653 2.11849 14.6694 1.88419 14.6694 1.63718C14.6694 1.39017 14.6541 1.19646 14.6239 1.05586C14.5939 0.915438 14.548 0.779136 14.4875 0.646995C14.4267 0.514988 14.3376 0.412873 14.2207 0.340381C14.1036 0.267979 13.958 0.210523 13.7847 0.167833C13.3247 0.0656732 12.739 0.0104095 12.0273 0.00181783C10.4133 -0.0151864 9.37629 0.0871074 8.91637 0.308565C8.73415 0.402133 8.56925 0.529978 8.42181 0.691698C8.26557 0.879147 8.24378 0.981442 8.35657 0.998267C8.8773 1.07483 9.24595 1.25798 9.46291 1.54755L9.5411 1.70099C9.60192 1.8117 9.66264 2.00769 9.72342 2.28871C9.7841 2.56973 9.82326 2.88059 9.84049 3.22112C9.8838 3.84299 9.8838 4.37531 9.84049 4.81814C9.79705 5.26114 9.75601 5.60602 9.71685 5.85302C9.67769 6.10003 9.61915 6.30019 9.5411 6.45345C9.46291 6.60676 9.41089 6.70046 9.38482 6.73447C9.35878 6.76848 9.33708 6.78991 9.31985 6.79833C9.20706 6.84075 9.08975 6.86236 8.96835 6.86236C8.84676 6.86236 8.69932 6.80267 8.5258 6.68337C8.35233 6.56407 8.17229 6.4002 7.98569 6.1915C7.79908 5.98275 7.58864 5.69104 7.35426 5.31632C7.12006 4.9416 6.87706 4.49873 6.6254 3.9877L6.41719 3.6171C6.28703 3.37868 6.10923 3.03153 5.8836 2.57595C5.65783 2.12019 5.45828 1.67933 5.28481 1.25346C5.21547 1.07461 5.11129 0.938439 4.97247 0.844737L4.90732 0.806298C4.86401 0.772289 4.79449 0.736177 4.69911 0.697694C4.6036 0.659256 4.50394 0.631691 4.39972 0.614731L0.833213 0.640148C0.468762 0.640148 0.221479 0.721187 0.0912723 0.88304L0.0391623 0.959604C0.0131301 1.00225 0 1.07036 0 1.1641C0 1.25781 0.0260322 1.37281 0.0781422 1.50898C0.598786 2.71001 1.16498 3.86832 1.77671 4.98406C2.38844 6.09981 2.92003 6.99857 3.37115 7.67955C3.82236 8.36102 4.28228 9.00418 4.7509 9.60873C5.21953 10.2135 5.52972 10.6011 5.68149 10.7713C5.83345 10.9419 5.9528 11.0694 6.03956 11.1546L6.36503 11.4612C6.57329 11.6656 6.87911 11.9105 7.28264 12.1957C7.68625 12.4812 8.13308 12.7622 8.62336 13.0392C9.11373 13.3158 9.68421 13.5415 10.3351 13.7161C10.9859 13.8908 11.6193 13.961 12.2355 13.9271H13.7324C14.036 13.9014 14.266 13.8077 14.4223 13.646L14.4741 13.5819C14.509 13.5311 14.5416 13.4521 14.5717 13.3459C14.6021 13.2394 14.6172 13.1221 14.6172 12.9945C14.6084 12.6284 14.6368 12.2984 14.7017 12.0045C14.7666 11.7108 14.8405 11.4894 14.9232 11.3402C15.0059 11.1912 15.0991 11.0655 15.2029 10.9635C15.307 10.8614 15.3811 10.7995 15.4246 10.7782C15.4678 10.7567 15.5023 10.7422 15.5284 10.7335C15.7366 10.6654 15.9817 10.7313 16.264 10.9317C16.5461 11.1318 16.8106 11.379 17.0581 11.6727C17.3054 11.9667 17.6026 12.2965 17.9496 12.6627C18.2969 13.029 18.6005 13.3013 18.8608 13.4804L19.121 13.6337C19.2948 13.736 19.5204 13.8297 19.7982 13.9149C20.0754 14 20.3183 14.0213 20.5269 13.9787L23.8589 13.9277C24.1885 13.9277 24.445 13.8742 24.6269 13.7679C24.8091 13.6614 24.9174 13.5441 24.9523 13.4166C24.9872 13.2888 24.989 13.144 24.959 12.982C24.9281 12.8204 24.8977 12.7074 24.8674 12.6435Z" />
	</symbol>
	<symbol id="ok" viewBox="0 0 17 17">
		<path d="M8.50921 6.79806C9.45814 6.79499 10.2139 6.03306 10.2105 5.08196C10.2067 4.13087 9.44964 3.37328 8.50035 3.37256C7.54311 3.37166 6.77865 4.1428 6.78606 5.10258C6.79312 6.05006 7.55739 6.80204 8.50921 6.79806Z" />
		<path d="M16.0957 0H0.904255C0.404926 0 0 0.404745 0 0.904255V16.0957C0 16.5953 0.404926 17 0.904255 17H16.0957C16.5953 17 17 16.5953 17 16.0957V0.904255C17 0.404745 16.5953 0 16.0957 0ZM8.51447 1.58534C10.4494 1.59022 12.0029 3.17339 11.9933 5.13038C11.983 7.04198 10.4042 8.59151 8.47233 8.585C6.55965 8.57849 4.99131 6.99297 5.00216 5.07721C5.01355 3.14048 6.58298 1.57955 8.51447 1.58534ZM12.4341 9.95983C12.0062 10.3995 11.4911 10.7171 10.9189 10.9393C10.378 11.1484 9.78531 11.2544 9.19863 11.3245C9.28724 11.4211 9.32902 11.4679 9.384 11.5238C10.1805 12.3241 10.9802 13.1211 11.7739 13.9237C12.0441 14.197 12.1013 14.5361 11.9521 14.8542C11.7891 15.2023 11.4247 15.4308 11.067 15.4062C10.8406 15.3902 10.6641 15.2776 10.5074 15.1201C9.9063 14.5151 9.29375 13.9216 8.70527 13.3059C8.534 13.1265 8.45153 13.16 8.29998 13.3161C7.69539 13.9386 7.0814 14.5515 6.46344 15.1607C6.18583 15.4346 5.85578 15.4836 5.53332 15.3275C5.19115 15.1616 4.97377 14.8124 4.99058 14.461C5.00216 14.2238 5.11899 14.0425 5.28194 13.8798C6.06972 13.0929 6.8557 12.304 7.64204 11.5157C7.69431 11.4636 7.74278 11.4077 7.81855 11.3267C6.74629 11.2148 5.77946 10.9511 4.95206 10.3036C4.84952 10.2231 4.74336 10.1454 4.64932 10.0553C4.28726 9.70736 4.2509 9.30931 4.53755 8.89859C4.78243 8.54738 5.1944 8.45298 5.62212 8.65463C5.70513 8.69351 5.78398 8.74252 5.85957 8.79479C7.40187 9.85457 9.5209 9.88405 11.0692 8.84289C11.2224 8.72588 11.3864 8.62895 11.5766 8.58084C11.9465 8.48589 12.2905 8.62135 12.489 8.94471C12.7164 9.31311 12.7133 9.67336 12.4341 9.95983Z" />
	</symbol>
	<symbol id="fb" viewBox="0 0 18 18">
		<path d="M17.6226 0H0.377628C0.169177 0 0 0.169175 0 0.377624V17.6222C0 17.8306 0.169177 17.9998 0.377628 17.9998H9.53982V11.9852H7.60618C7.43908 11.9852 7.3037 11.8498 7.3037 11.6827V9.24442C7.3037 9.07732 7.43908 8.94175 7.60618 8.94175H9.54001V7.25887C9.54001 5.04147 10.9363 3.60876 13.0971 3.60876L15.0207 3.61178C15.1874 3.61197 15.3228 3.74735 15.3228 3.91426V6.1783C15.3228 6.3454 15.1874 6.48078 15.0203 6.48078L13.7245 6.48134C12.8316 6.48134 12.6681 6.82951 12.6681 7.51509V8.94175H14.9299C15.0101 8.94175 15.087 8.97366 15.1438 9.03049C15.2005 9.08733 15.2324 9.16417 15.2324 9.24442L15.2316 11.6829C15.2316 11.85 15.0962 11.9856 14.9291 11.9856H12.6679V18H17.6224C17.8308 18 18 17.8308 18 17.6224V0.377624C18.0002 0.168987 17.8312 0 17.6226 0Z" />
	</symbol>
	<symbol id="youtube" viewBox="0 0 25 17">
		<path d="M23.5984 1.45933C22.7121 0.422806 21.0756 0 17.9502 0H6.60513C3.40823 0 1.744 0.45008 0.860949 1.55362C0 2.62957 0 4.2149 0 6.40903V10.591C0 14.8418 1.02151 17 6.60513 17H17.9503C20.6606 17 22.1624 16.6269 23.134 15.7122C24.1304 14.7741 24.5556 13.2426 24.5556 10.591V6.40903C24.5556 4.09513 24.4889 2.50045 23.5984 1.45933ZM15.7647 9.0774L10.613 11.7261C10.4978 11.7853 10.3719 11.8147 10.2461 11.8147C10.1037 11.8147 9.96155 11.7769 9.83569 11.702C9.59869 11.5607 9.45397 11.308 9.45397 11.0354V5.75511C9.45397 5.483 9.59829 5.23053 9.83482 5.08918C10.0714 4.94783 10.3657 4.93817 10.6112 5.06363L15.7629 7.69522C16.025 7.82909 16.1896 8.09527 16.19 8.38569C16.1903 8.67634 16.0265 8.94291 15.7647 9.0774Z" />
	</symbol>
	<symbol id="insta" viewBox="0 0 17 17">
		<path d="M13.0769 4.57681C12.7167 4.57681 12.4231 4.28323 12.4231 3.92296V2.61527C12.4231 2.255 12.7167 1.96143 13.0769 1.96143H14.3846C14.7449 1.96143 15.0385 2.255 15.0385 2.61527V3.92296C15.0385 4.28323 14.7449 4.57681 14.3846 4.57681H13.0769Z" />
		<path d="M8.50003 6.00757C8.02534 6.00757 7.58726 6.14684 7.20999 6.37568C7.32768 6.33907 7.44995 6.31488 7.57876 6.31488C8.27707 6.31488 8.84265 6.88045 8.84265 7.57941C8.84265 8.27641 8.27707 8.8433 7.57876 8.8433C6.88045 8.8433 6.31488 8.27707 6.31488 7.57941C6.31488 7.4493 6.34038 7.32703 6.37634 7.20999C6.14618 7.58726 6.00757 8.02534 6.00757 8.50003C6.00757 9.87768 7.12238 10.9931 8.50068 10.9931C9.87703 10.9931 10.9938 9.87834 10.9938 8.50003C10.9938 7.12172 9.87638 6.00757 8.50003 6.00757Z" />
		<path d="M8.50006 4.57698C10.6662 4.57698 12.4231 6.33321 12.4231 8.50006C12.4231 10.6669 10.6656 12.4231 8.50006 12.4231C6.33386 12.4231 4.57698 10.6669 4.57698 8.50006C4.57698 6.33321 6.33386 4.57698 8.50006 4.57698ZM8.50006 3.26929C5.61594 3.26929 3.26929 5.61594 3.26929 8.50006C3.26929 11.3842 5.61594 13.7308 8.50006 13.7308C11.3842 13.7308 13.7308 11.3842 13.7308 8.50006C13.7308 5.61594 11.3842 3.26929 8.50006 3.26929Z" />
		<path d="M13.8125 0H3.1875C1.42669 0 0 1.42669 0 3.1875V13.8125C0 15.5733 1.42669 17 3.1875 17H13.8125C15.5733 17 17 15.5733 17 13.8125V3.1875C17 1.42669 15.5733 0 13.8125 0ZM15.6923 5.88462H11.4181C12.0412 6.57965 12.4231 7.49373 12.4231 8.5C12.4231 10.6668 10.6655 12.4231 8.5 12.4231C6.33381 12.4231 4.57692 10.6668 4.57692 8.5C4.57692 7.49373 4.95877 6.579 5.58188 5.88462H1.30769V3.1875C1.30769 2.15115 2.15115 1.30769 3.1875 1.30769H13.8125C14.8495 1.30769 15.6923 2.15115 15.6923 3.1875V5.88462Z" />
	</symbol>
	<symbol id="close" viewBox="0 0 29 29">
		<path d="M17.0647 14.5007L28.4686 3.09682C29.1771 2.38891 29.1771 1.2403 28.4686 0.532391C27.7601 -0.176121 26.6127 -0.176121 25.9042 0.532391L14.5003 11.9363L3.09581 0.532391C2.3873 -0.176121 1.23989 -0.176121 0.531384 0.532391C-0.177128 1.2403 -0.177128 2.38891 0.531384 3.09682L11.9359 14.5007L0.531384 25.9046C-0.177128 26.6125 -0.177128 27.7611 0.531384 28.469C0.885639 28.8227 1.34992 28.9998 1.8136 28.9998C2.27727 28.9998 2.74155 28.8227 3.09581 28.4684L14.5003 17.0645L25.9042 28.4684C26.2584 28.8227 26.7227 28.9998 27.1864 28.9998C27.6501 28.9998 28.1144 28.8227 28.4686 28.4684C29.1771 27.7605 29.1771 26.6119 28.4686 25.904L17.0647 14.5007Z" />
	</symbol>
	<symbol id="burger" viewBox="0 0 18 16">
		<rect width="18" height="2" />
		<rect y="7" width="14" height="2" />
		<rect y="14" width="10" height="2" />
	</symbol>
	<symbol id="loop" viewBox="0 0 53 53">
		<path d="M53.0009 21.7383C53.0009 25.5134 52.0175 29.2327 50.157 32.4946C49.5905 33.4877 48.3265 33.8334 47.333 33.2669C46.3399 32.7004 45.9938 31.436 46.5607 30.4429C48.0649 27.8053 48.8603 24.7952 48.8603 21.7383C48.8603 12.0349 40.966 4.14062 31.2626 4.14062C21.5592 4.14062 13.665 12.0349 13.665 21.7383C13.665 31.4417 21.5592 39.3359 31.2626 39.3359C34.2824 39.3359 37.2604 38.5588 39.8746 37.0885C40.8714 36.5281 42.1338 36.8819 42.6942 37.8782C43.2547 38.875 42.9012 40.1374 41.9045 40.6974C38.6721 42.5158 34.992 43.4766 31.2626 43.4766C26.0375 43.4766 21.2374 41.623 17.4841 38.5394L3.53012 52.3987C3.12657 52.7994 2.59889 53 2.0712 53C1.53907 53 1.00693 52.7962 0.602168 52.3886C-0.203313 51.5775 -0.198865 50.2665 0.612277 49.4607L14.5477 35.6203C11.4127 31.8521 9.52433 27.0119 9.52433 21.7383C9.52433 9.7519 19.2762 0 31.2626 0C43.249 0 53.0009 9.7519 53.0009 21.7383ZM45.1713 20.8584C45.6731 21.5725 45.6731 22.5248 45.1717 23.2389C45.0989 23.3424 44.849 23.6962 44.6938 23.8915C44.0007 24.7629 42.3776 26.8049 40.1193 28.6071C37.2237 30.918 34.2439 32.0898 31.2626 32.0898C28.2817 32.0898 25.302 30.918 22.4064 28.6071C20.1476 26.8049 18.5245 24.7633 17.8315 23.8915C17.6762 23.6962 17.4267 23.3428 17.3535 23.2389C16.8521 22.5248 16.8521 21.5725 17.3539 20.8584C17.4267 20.7549 17.6762 20.4015 17.8315 20.2066C18.5245 19.3344 20.148 17.2928 22.4064 15.4905C25.3016 13.1796 28.2817 12.0078 31.2626 12.0078C34.2439 12.0078 37.2237 13.1796 40.1193 15.4905C42.3776 17.2928 44.0007 19.3344 44.6938 20.2066C44.849 20.4019 45.0985 20.7549 45.1713 20.8584ZM40.8528 22.0488C37.5609 18.1326 34.3377 16.1484 31.2626 16.1484C28.1879 16.1484 24.9647 18.1326 21.6729 22.0488C24.9647 25.965 28.1879 27.9492 31.2626 27.9492C34.3377 27.9492 37.5605 25.9654 40.8528 22.0488ZM31.3661 18.1152C29.1935 18.1152 27.4325 19.8762 27.4325 22.0488C27.4325 24.2214 29.1935 25.9824 31.3661 25.9824C33.5387 25.9824 35.2997 24.2214 35.2997 22.0488C35.2997 19.8762 33.5387 18.1152 31.3661 18.1152Z" />
	</symbol>
	<symbol id="pdf" viewBox="0 0 33 33">
		<path d="M9.72111 21.2312C9.72111 20.6831 9.34084 20.3563 8.66987 20.3563C8.39589 20.3563 8.21034 20.3834 8.11328 20.4092V22.1676C8.2282 22.1935 8.36947 22.2021 8.56419 22.2021C9.27937 22.2021 9.72111 21.8408 9.72111 21.2312Z" />
		<path d="M13.8741 20.3748C13.5737 20.3748 13.3795 20.4007 13.2646 20.4276V24.3218C13.3796 24.3488 13.5651 24.3488 13.7329 24.3488C14.9518 24.3574 15.7468 23.6865 15.7468 22.2647C15.7554 21.0284 15.031 20.3748 13.8741 20.3748Z" />
		<path d="M21.5911 0H8.337C6.4007 0 4.82475 1.57704 4.82475 3.51225V16.4999H4.48171C3.70021 16.4999 3.06641 17.1331 3.06641 17.9153V26.4986C3.06641 27.2807 3.70014 27.9138 4.48171 27.9138H4.82475V29.4877C4.82475 31.425 6.4007 32.9999 8.337 32.9999H26.4217C28.3568 32.9999 29.9329 31.4249 29.9329 29.4877V8.31256L21.5911 0ZM6.77933 19.4643C7.19411 19.3942 7.77712 19.3413 8.59853 19.3413C9.42863 19.3413 10.0203 19.4998 10.4178 19.8181C10.7975 20.118 11.0538 20.6131 11.0538 21.1957C11.0538 21.7781 10.8596 22.2733 10.5063 22.6088C10.0468 23.0413 9.36716 23.2355 8.57218 23.2355C8.39525 23.2355 8.23666 23.2268 8.11264 23.2096V25.3379H6.77933V19.4643ZM26.4217 30.849H8.337C7.58726 30.849 6.97673 30.2385 6.97673 29.4877V27.9138H23.8354C24.617 27.9138 25.2507 27.2807 25.2507 26.4986V17.9153C25.2507 17.1331 24.617 16.4999 23.8354 16.4999H6.97673V3.51225C6.97673 2.7636 7.58732 2.15307 8.337 2.15307L20.7864 2.14006V6.74182C20.7864 8.08594 21.877 9.17756 23.2222 9.17756L27.7301 9.16463L27.7808 29.4876C27.7808 30.2385 27.1714 30.849 26.4217 30.849ZM11.9135 25.311V19.4643C12.408 19.3856 13.0526 19.3413 13.7328 19.3413C14.8632 19.3413 15.5963 19.5441 16.1707 19.9767C16.7888 20.4362 17.1771 21.1687 17.1771 22.2203C17.1771 23.3595 16.7623 24.1459 16.1878 24.6312C15.5611 25.1522 14.607 25.3993 13.4415 25.3993C12.7435 25.3993 12.249 25.3551 11.9135 25.311ZM21.5524 21.8494V22.9442H19.4149V25.3379H18.0638V19.3856H21.7023V20.489H19.4149V21.8494H21.5524Z" />
	</symbol>
	<symbol id="about-ic1" viewBox="0 0 83 83">
		<path d="M63.503 21.5212C63.503 24.0357 61.6724 25.5649 60.3357 26.6871C59.8295 27.1122 58.8872 27.8878 58.8898 28.1775C58.8989 29.3139 57.9852 30.2214 56.8486 30.2214C56.8429 30.2214 56.8372 30.2214 56.8314 30.2214C55.7028 30.2214 54.7832 29.3418 54.7741 28.2111C54.756 25.9824 56.3824 24.6478 57.6893 23.5505C58.7148 22.6894 59.3873 22.0835 59.3873 21.529C59.3873 20.4066 58.4741 19.4933 57.3516 19.4933C56.2287 19.4933 55.3153 20.4066 55.3153 21.529C55.3153 22.6656 54.394 23.5869 53.2574 23.5869C52.1208 23.5869 51.1996 22.6656 51.1996 21.529C51.1996 18.1372 53.9591 15.3776 57.3512 15.3776C60.7434 15.3774 63.503 18.1292 63.503 21.5212ZM56.8884 32.121C55.7518 32.121 54.876 33.0422 54.876 34.1788V34.1946C54.876 35.3312 55.752 36.2447 56.8884 36.2447C58.0248 36.2447 58.9462 35.3155 58.9462 34.1788C58.9462 33.0422 58.025 32.121 56.8884 32.121ZM15.4092 46.4558C14.2726 46.4558 13.3513 47.377 13.3513 48.5136C13.3513 49.6502 14.2726 50.5715 15.4092 50.5715H15.5807C16.7173 50.5715 17.6385 49.6502 17.6385 48.5136C17.6385 47.377 16.7173 46.4558 15.5807 46.4558H15.4092ZM22.5611 46.4558C21.4245 46.4558 20.5033 47.377 20.5033 48.5136C20.5033 49.6502 21.4245 50.5715 22.5611 50.5715H22.7324C23.869 50.5715 24.7902 49.6502 24.7902 48.5136C24.7902 47.377 23.869 46.4558 22.7324 46.4558H22.5611ZM83 13.5875V36.75C83 42.2342 78.6026 46.6844 73.1184 46.6844H46.4311C45.9093 46.6844 45.4797 46.6814 45.1202 46.6739C44.7436 46.6661 44.3197 46.6631 44.1544 46.6814C43.9822 46.7958 43.5601 47.1824 43.1534 47.5572C42.9922 47.7056 42.8097 47.8688 42.6128 48.0485L35.0624 54.9304C34.4601 55.4799 33.569 55.6221 32.8232 55.2933C32.0773 54.9643 31.5537 54.2257 31.5537 53.4106V31.5935H9.99658C6.78131 31.5935 4.1157 34.2282 4.1157 37.4431V60.6055C4.1157 63.8206 6.78153 66.3483 9.99658 66.3483H39.8066C40.3199 66.3483 40.8001 66.5841 41.1792 66.9302L47.3306 72.6017V53.0432C47.3306 51.9065 48.2518 50.9853 49.3884 50.9853C50.5251 50.9853 51.4463 51.9065 51.4463 53.0432V77.2659C51.4463 78.081 50.9798 78.8086 50.2337 79.1376C49.9669 79.2554 49.6989 79.3018 49.4184 79.3018C48.9144 79.3018 48.4174 79.0949 48.0307 78.7418L39.0089 70.4638H9.99658C4.51218 70.4638 0 66.0897 0 60.6053V37.4431C0 31.9589 4.51218 27.4778 9.99658 27.4778H31.5537V13.5875C31.5537 8.10313 36.1004 3.69818 41.5848 3.69818H73.1187C78.6026 3.69818 83 8.10313 83 13.5875ZM78.8843 13.5875C78.8843 10.3725 76.3332 7.81388 73.1184 7.81388H41.5848C38.3698 7.81388 35.6694 10.3725 35.6694 13.5875V29.5549V48.7464L39.8068 45.0073C39.9985 44.8323 40.2132 44.6723 40.3698 44.5278C42.2591 42.7868 42.7425 42.5086 45.2069 42.5593C45.543 42.5664 45.9434 42.5689 46.4311 42.5689H73.1184C76.3332 42.5689 78.8843 39.9651 78.8843 36.7502V13.5875Z" />
	</symbol>
	<symbol id="about-ic2" viewBox="0 0 76 76">
		<path d="M67.0938 11.7266H62.6406V5.78906H47.7969V11.7266H28.2031V5.78906H13.3594V11.7266H8.90625C3.99506 11.7266 0 15.7216 0 20.6328V61.3047C0 66.2159 3.99506 70.2109 8.90625 70.2109H67.0938C72.0049 70.2109 76 66.2159 76 61.3047V20.6328C76 15.7216 72.0049 11.7266 67.0938 11.7266ZM70.0625 61.3047C70.0625 62.9416 68.7306 64.2734 67.0938 64.2734H8.90625C7.26938 64.2734 5.9375 62.9416 5.9375 61.3047V20.6328C5.9375 18.9959 7.26938 17.6641 8.90625 17.6641H67.0938C68.7306 17.6641 70.0625 18.9959 70.0625 20.6328V61.3047ZM36.315 38.2969H48.4799L40.5234 55.0703L35.3281 58.0391V52.3984L39.2838 44.2344H27.4609L35.1797 25.3828H41.6669L36.315 38.2969Z" />
	</symbol>
	<symbol id="about-ic3" viewBox="0 0 61 79">
		<path d="M59.4158 24.673C58.8693 23.9834 58.0883 23.5479 57.2171 23.4466L53.9479 23.0641C52.0898 22.8487 50.5083 24.149 50.2929 25.9507L48.3835 42.303C48.3163 42.8998 48.4608 43.4534 48.6868 43.9681C48.6792 43.9939 48.6601 44.0123 48.6535 44.0388L47.3196 49.375H46.5995L45.2654 44.0389C45.2588 44.0124 45.2393 43.9939 45.2315 43.968C45.4578 43.452 45.6027 42.8973 45.5354 42.2982L43.6229 25.9492C43.427 24.2865 42.0496 23.0925 40.3762 23.0945V19.75C40.3762 8.85926 31.517 0 20.6262 0C9.73548 0 0.876221 8.85926 0.876221 19.75C0.876221 30.6407 9.73548 39.5 20.6262 39.5C26.0717 39.5 30.5012 43.9296 30.5012 49.375C30.5012 54.8204 26.0717 59.25 20.6262 59.25C19.7165 59.25 18.9803 59.9861 18.9803 60.8959C18.9803 61.8056 19.7165 62.5418 20.6262 62.5418C27.8879 62.5418 33.7928 56.6351 33.7928 49.3752C33.7928 42.1152 27.8877 36.2085 20.6262 36.2085C11.5517 36.2085 4.16784 28.8248 4.16784 19.7502C4.16784 10.6755 11.5517 3.29162 20.6262 3.29162C29.7009 3.29162 37.0846 10.6753 37.0846 19.75V23.4024L36.7053 23.4468C35.8309 23.548 35.0499 23.9836 34.5034 24.6731C33.9569 25.3627 33.7158 26.2241 33.8155 27.0968L35.7217 43.4443C35.8379 44.4199 36.396 45.2088 37.1469 45.7293L38.7337 77.4364C38.7755 78.3123 39.4987 79.0002 40.3764 79.0002C44.0056 79.0002 46.9598 76.0477 46.9598 72.4168C46.9598 76.0475 49.9139 79.0002 53.5431 79.0002C54.4208 79.0002 55.144 78.3123 55.1858 77.4364L56.7726 45.7288C57.5229 45.2082 58.0816 44.4194 58.1978 43.4444L60.1008 27.0985C60.2034 26.224 59.9624 25.3625 59.4158 24.673ZM47.1332 64.9237L48.4126 67.4793L47.1332 70.0349C47.0207 70.2631 46.9596 70.5155 46.9596 70.771C46.9596 70.5155 46.8985 70.2631 46.786 70.0349L45.5066 67.4793L46.786 64.9237C46.9017 64.6922 46.9596 64.4399 46.9596 64.1875C46.9596 63.9352 46.9017 63.6828 46.786 63.4514L45.5066 60.8957L46.3295 59.25H47.5885L48.4125 60.8959L47.133 63.4515C47.0173 63.6829 46.9594 63.9352 46.9594 64.1877C46.9596 64.4398 47.0175 64.6922 47.1332 64.9237Z" />
	</symbol>
	<symbol id="about-ic4" viewBox="0 0 77 77">
		<path d="M46.278 70.1333C45.643 70.2915 44.9957 70.432 44.3531 70.5504C42.6734 70.8627 41.563 72.4782 41.8736 74.1594C42.0271 74.9865 42.4968 75.6754 43.1346 76.1251C43.7919 76.5877 44.6284 76.7966 45.4808 76.638C46.246 76.496 47.0172 76.329 47.7739 76.1401C49.4326 75.7273 50.4431 74.047 50.0293 72.3891C49.6165 70.7298 47.9376 69.7201 46.278 70.1333Z" />
		<path d="M69.1686 28.6429C69.3854 29.2964 69.7994 29.8299 70.3223 30.1985C71.0976 30.7445 72.1121 30.9282 73.0802 30.6081C74.7033 30.0692 75.5827 28.319 75.0457 26.6967C74.8011 25.9572 74.5296 25.2153 74.2405 24.493C73.6055 22.9057 71.805 22.1328 70.2168 22.7678C68.6303 23.4024 67.8572 25.2034 68.4926 26.7912C68.7356 27.3984 68.9632 28.0215 69.1686 28.6429Z" />
		<path d="M56.3364 65.7137C55.7904 66.0742 55.2268 66.4231 54.659 66.75C53.1778 67.6044 52.6705 69.4978 53.5246 70.9784C53.7565 71.3811 54.0653 71.7103 54.421 71.9619C55.3759 72.6338 56.6728 72.7344 57.7524 72.1124C58.4274 71.7231 59.0986 71.309 59.7489 70.8789C61.1747 69.937 61.5672 68.0164 60.6247 66.59C59.6824 65.163 57.7627 64.7711 56.3364 65.7137Z" />
		<path d="M76.9706 37.2883C76.9032 35.5798 75.4642 34.25 73.7552 34.3167C72.0484 34.3841 70.7176 35.8236 70.7847 37.5315C70.8103 38.1844 70.8169 38.8472 70.8019 39.4995C70.7779 40.5709 71.3019 41.526 72.1163 42.1C72.6014 42.4416 73.1902 42.6484 73.8286 42.6629C75.5371 42.7008 76.9529 41.3457 76.9908 39.6364C77.0079 38.857 77.0014 38.0673 76.9706 37.2883Z" />
		<path d="M68.6634 57.5706C67.2934 56.5427 65.3552 56.8218 64.3291 58.1893C63.9362 58.713 63.5224 59.2303 63.0986 59.7283C61.9913 61.0293 62.1477 62.9835 63.4487 64.0916C63.5229 64.1545 63.5979 64.2123 63.6756 64.2666C64.969 65.1784 66.7666 64.9689 67.8123 63.7417C68.3183 63.1475 68.8116 62.5296 69.2811 61.9041C70.3074 60.5366 70.0296 58.597 68.6634 57.5706Z" />
		<path d="M73.2136 46.381C71.5824 45.8695 69.8453 46.7776 69.3341 48.4088C69.1385 49.032 68.9217 49.6581 68.6876 50.2714C68.1737 51.6214 68.6661 53.1067 69.7949 53.9027C70.002 54.0482 70.2301 54.1715 70.4779 54.2652C72.075 54.8747 73.8634 54.0734 74.4722 52.4756C74.7501 51.7465 75.008 51.0015 75.2412 50.2606C75.7519 48.6291 74.8445 46.8924 73.2136 46.381Z" />
		<path d="M32.7728 70.5782C30.0053 70.0813 27.3505 69.2352 24.8331 68.055C24.8033 68.0395 24.7767 68.0218 24.7454 68.0075C24.1521 67.7283 23.5599 67.4292 22.9859 67.1167C22.9839 67.1144 22.9803 67.1129 22.9771 67.1116C21.9239 66.5316 20.896 65.8899 19.8975 65.1869C5.33631 54.9296 1.83522 34.7381 12.0932 20.1772C14.3237 17.0121 17.023 14.3715 20.0324 12.2787C20.0694 12.2529 20.1065 12.2272 20.1432 12.2012C30.7476 4.89451 45.1467 4.40209 56.4069 11.9104L53.9885 15.4047C53.3161 16.3773 53.7298 17.0861 54.9068 16.9801L65.4119 16.0396C66.5904 15.9337 67.2952 14.9143 66.9782 13.7762L64.1572 3.61222C63.8414 2.47278 63.0328 2.33639 62.3598 3.30883L59.9358 6.8114C51.6724 1.26432 41.7612 -0.850862 31.9238 0.854989C30.933 1.02647 29.9561 1.23635 28.9926 1.48066C28.9852 1.48198 28.9792 1.48281 28.9733 1.48413C28.936 1.49323 28.8983 1.50532 28.862 1.51541C20.3791 3.69383 12.9779 8.64139 7.69663 15.7005C7.6521 15.7533 7.60625 15.8049 7.56421 15.8624C7.38859 16.0989 7.2143 16.3409 7.04365 16.5829C6.76458 16.9795 6.48949 17.386 6.22631 17.7925C6.19337 17.8415 6.16821 17.8913 6.13941 17.9408C1.78127 24.6942 -0.320841 32.5018 0.0396621 40.4504C0.0404897 40.4766 0.039 40.5029 0.0396621 40.5297C0.0745868 41.3061 0.13616 42.0934 0.219748 42.8683C0.224217 42.9183 0.235307 42.9656 0.243749 43.0156C0.33015 43.7949 0.438566 44.576 0.574458 45.3569C1.95556 53.3247 5.71419 60.4946 11.3463 66.0734C11.3594 66.0865 11.373 66.1007 11.3862 66.1143C11.3909 66.1194 11.396 66.1221 11.4005 66.1269C12.9137 67.6194 14.5596 68.9998 16.3318 70.248C20.9697 73.516 26.1341 75.6762 31.6803 76.6715C33.3632 76.9739 34.9707 75.8537 35.2726 74.1717C35.5744 72.4885 34.4551 70.8796 32.7728 70.5782Z" />
		<path d="M36.6005 13.771C35.2162 13.771 34.095 14.8932 34.095 16.2755V41.2272L56.9153 53.0239C57.2825 53.2141 57.6758 53.3037 58.0628 53.3037C58.9692 53.3037 59.8446 52.8101 60.2897 51.9489C60.9245 50.7197 60.4442 49.2097 59.215 48.5749L39.1031 38.1773V16.2755C39.103 14.8932 37.983 13.771 36.6005 13.771Z" />
	</symbol>
	<symbol id="about-ic5" viewBox="0 0 68 68">
		<path d="M61.8906 0H6.10938C2.74081 0 0 2.74081 0 6.10938V61.8906C0 65.2592 2.74081 68 6.10938 68H61.8906C65.2592 68 68 65.2592 68 61.8906V6.10938C68 2.74081 65.2592 0 61.8906 0ZM64.0156 6.10938V32.0078H35.9922V3.98438H61.8906C63.0621 3.98438 64.0156 4.93793 64.0156 6.10938ZM6.10938 3.98438H32.0078V32.0078H3.98438V6.10938C3.98438 4.93793 4.93793 3.98438 6.10938 3.98438ZM3.98438 61.8906V35.9922H32.0078V64.0156H6.10938C4.93793 64.0156 3.98438 63.0621 3.98438 61.8906ZM61.8906 64.0156H35.9922V35.9922H64.0156V61.8906C64.0156 63.0621 63.0621 64.0156 61.8906 64.0156Z" />
		<path d="M10.0938 20.0547H16.0703V26.0312C16.0703 27.1316 16.9621 28.0234 18.0625 28.0234C19.1629 28.0234 20.0547 27.1316 20.0547 26.0312V20.0547H26.0312C27.1316 20.0547 28.0234 19.1629 28.0234 18.0625C28.0234 16.9621 27.1316 16.0703 26.0312 16.0703H20.0547V10.0938C20.0547 8.99338 19.1629 8.10156 18.0625 8.10156C16.9621 8.10156 16.0703 8.99338 16.0703 10.0938V16.0703H10.0938C8.99338 16.0703 8.10156 16.9621 8.10156 18.0625C8.10156 19.1629 8.99338 20.0547 10.0938 20.0547Z" />
		<path d="M41.9688 20.0547H57.9062C59.0066 20.0547 59.8984 19.1629 59.8984 18.0625C59.8984 16.9621 59.0066 16.0703 57.9062 16.0703H41.9688C40.8684 16.0703 39.9766 16.9621 39.9766 18.0625C39.9766 19.1629 40.8684 20.0547 41.9688 20.0547Z" />
		<path d="M26.0312 47.9453H10.0938C8.99338 47.9453 8.10156 48.8371 8.10156 49.9375C8.10156 51.0379 8.99338 51.9297 10.0938 51.9297H26.0312C27.1316 51.9297 28.0234 51.0379 28.0234 49.9375C28.0234 48.8371 27.1316 47.9453 26.0312 47.9453Z" />
		<path d="M58.3897 41.4852C57.6115 40.7076 56.3503 40.7076 55.5721 41.4852L49.9374 47.1199L44.3027 41.4852C43.5245 40.7076 42.2633 40.7076 41.4851 41.4852C40.7074 42.2634 40.7074 43.5246 41.4851 44.3028L47.1198 49.9375L41.4851 55.5722C40.7074 56.3504 40.7074 57.6116 41.4851 58.3898C42.2633 59.1675 43.5245 59.168 44.3027 58.3898L49.9374 52.7551L55.5721 58.3898C56.3503 59.1675 57.6115 59.168 58.3897 58.3898C59.1673 57.6116 59.1673 56.3504 58.3897 55.5722L52.755 49.9375L58.3897 44.3028C59.1673 43.5246 59.1673 42.2634 58.3897 41.4852Z" />
		<path d="M20.0547 41.9688C20.0547 43.0691 19.1629 43.9609 18.0625 43.9609C16.9621 43.9609 16.0703 43.0691 16.0703 41.9688C16.0703 40.8684 16.9621 39.9766 18.0625 39.9766C19.1629 39.9766 20.0547 40.8684 20.0547 41.9688Z" />
		<path d="M20.0547 57.9062C20.0547 59.0066 19.1629 59.8984 18.0625 59.8984C16.9621 59.8984 16.0703 59.0066 16.0703 57.9062C16.0703 56.8059 16.9621 55.9141 18.0625 55.9141C19.1629 55.9141 20.0547 56.8059 20.0547 57.9062Z" />
	</symbol>
	<symbol id="phone-contacts" viewBox="0 0 23 23">
		<path d="M18.1771 14.2477C17.7063 13.7574 17.1383 13.4953 16.5364 13.4953C15.9393 13.4953 15.3665 13.7525 14.8762 14.2428L13.3422 15.7719C13.216 15.704 13.0898 15.6409 12.9685 15.5778C12.7937 15.4904 12.6287 15.4079 12.4879 15.3205C11.051 14.4079 9.74519 13.2186 8.49278 11.6797C7.88599 10.9128 7.47823 10.2671 7.18212 9.61181C7.58017 9.24774 7.9491 8.8691 8.30832 8.50503C8.44424 8.36911 8.58016 8.22833 8.71608 8.09241C9.73548 7.07301 9.73548 5.75264 8.71608 4.73323L7.39085 3.40801C7.24037 3.25752 7.08503 3.10219 6.9394 2.94685C6.64814 2.64588 6.34232 2.33521 6.02679 2.04395C5.55592 1.57793 4.99282 1.33036 4.4006 1.33036C3.80837 1.33036 3.23556 1.57793 2.75013 2.04395C2.74528 2.0488 2.74528 2.0488 2.74043 2.05366L1.08996 3.71868C0.46861 4.34004 0.114245 5.09731 0.0365763 5.97594C-0.0799271 7.39339 0.337543 8.71377 0.657928 9.57783C1.44433 11.6992 2.61907 13.6652 4.37147 15.7719C6.49766 18.3107 9.05588 20.3156 11.9782 21.7282C13.0947 22.2573 14.5849 22.8835 16.25 22.9903C16.3519 22.9951 16.4587 23 16.5558 23C17.6771 23 18.6189 22.5971 19.3567 21.7961C19.3616 21.7864 19.3713 21.7816 19.3761 21.7719C19.6286 21.466 19.9198 21.1893 20.2256 20.8932C20.4344 20.6942 20.648 20.4855 20.8567 20.267C21.3373 19.767 21.5897 19.1845 21.5897 18.5874C21.5897 17.9855 21.3324 17.4078 20.8421 16.9224L18.1771 14.2477ZM19.915 19.3593C19.9101 19.3593 19.9101 19.3641 19.915 19.3593C19.7256 19.5631 19.5315 19.7476 19.3227 19.9515C19.0072 20.2525 18.6868 20.568 18.3859 20.9223C17.8956 21.4466 17.3179 21.6942 16.5606 21.6942C16.4878 21.6942 16.4102 21.6942 16.3373 21.6893C14.8956 21.5971 13.5558 21.034 12.551 20.5534C9.80344 19.2233 7.39085 17.335 5.38602 14.9418C3.7307 12.9467 2.62392 11.1021 1.89092 9.12153C1.43947 7.91281 1.27442 6.97107 1.34724 6.08273C1.39578 5.51478 1.61423 5.04391 2.01713 4.641L3.67245 2.98568C3.91031 2.76238 4.16274 2.64103 4.41031 2.64103C4.71613 2.64103 4.9637 2.82549 5.11904 2.98083C5.12389 2.98568 5.12874 2.99054 5.1336 2.99539C5.42971 3.27209 5.71126 3.55849 6.00737 3.86431C6.15786 4.01965 6.3132 4.17499 6.46853 4.33518L7.79376 5.66041C8.30832 6.17496 8.30832 6.65069 7.79376 7.16524C7.65298 7.30602 7.51706 7.44679 7.37629 7.58271C6.96853 8.00018 6.58018 8.38853 6.15786 8.76716C6.14815 8.77687 6.13844 8.78173 6.13359 8.79144C5.71612 9.20891 5.79378 9.61667 5.88116 9.89336C5.88602 9.90793 5.89087 9.92249 5.89573 9.93705C6.24038 10.772 6.72581 11.5584 7.46367 12.4953L7.46852 12.5001C8.80831 14.1506 10.2209 15.437 11.7791 16.4224C11.9782 16.5486 12.1821 16.6506 12.3762 16.7476C12.551 16.835 12.716 16.9175 12.8568 17.0049C12.8762 17.0146 12.8956 17.0292 12.9151 17.0389C13.0801 17.1214 13.2354 17.1603 13.3956 17.1603C13.7985 17.1603 14.051 16.9078 14.1335 16.8253L15.7937 15.1651C15.9587 15.0001 16.2208 14.8011 16.5267 14.8011C16.8276 14.8011 17.0752 14.9904 17.2257 15.1554C17.2305 15.1603 17.2305 15.1603 17.2354 15.1651L19.9101 17.8399C20.4101 18.335 20.4101 18.8447 19.915 19.3593Z" />
		<path d="M12.43 5.47109C13.7019 5.68468 14.8572 6.28662 15.7795 7.20894C16.7018 8.13125 17.2989 9.28658 17.5174 10.5584C17.5708 10.8788 17.8475 11.1021 18.163 11.1021C18.2018 11.1021 18.2358 11.0972 18.2746 11.0924C18.6338 11.0341 18.8717 10.6943 18.8135 10.3351C18.5513 8.79629 17.8232 7.3934 16.7115 6.28176C15.5999 5.17013 14.197 4.44198 12.6582 4.17985C12.299 4.1216 11.964 4.35946 11.9009 4.71382C11.8378 5.06819 12.0708 5.41284 12.43 5.47109Z" />
		<path d="M22.9732 10.1458C22.5411 7.61184 21.347 5.30605 19.512 3.47112C17.6771 1.63619 15.3713 0.44203 12.8374 0.0099966C12.483 -0.0531094 12.148 0.189606 12.0849 0.54397C12.0267 0.903189 12.2646 1.23814 12.6238 1.30124C14.8859 1.68473 16.949 2.75753 18.5897 4.39344C20.2305 6.03419 21.2984 8.09727 21.6819 10.3594C21.7353 10.6798 22.012 10.9031 22.3275 10.9031C22.3664 10.9031 22.4003 10.8982 22.4392 10.8934C22.7935 10.84 23.0363 10.5002 22.9732 10.1458Z" />
	</symbol>
	<symbol id="mail-contacts" viewBox="0 0 23 23">
		<path d="M11.4551 0C5.12379 0 0 5.12334 0 11.4551C0 17.7394 5.07729 23 11.4551 23C17.7731 23 23 17.7929 23 11.4551C23 5.07033 17.7326 0 11.4551 0ZM11.4551 21.6613C5.88185 21.6613 1.33867 17.0779 1.33867 11.4551C1.33867 5.88185 5.88185 1.33867 11.4551 1.33867C17.0779 1.33867 21.6613 5.88185 21.6613 11.4551C21.6613 17.0779 17.0779 21.6613 11.4551 21.6613Z" />
		<path d="M11.4551 4.04297C7.36804 4.04297 4.04297 7.36804 4.04297 11.4551C4.04297 15.5575 7.36121 18.957 11.4551 18.957C13.1115 18.957 14.7872 18.4003 16.0523 17.4296C16.3476 17.2031 16.4033 16.7801 16.1768 16.4848C15.9502 16.1896 15.5272 16.1339 15.232 16.3604C14.1975 17.1541 12.8208 17.6184 11.4551 17.6184C8.11114 17.6184 5.39062 14.8486 5.39062 11.4551C5.39062 8.11114 8.11114 5.38164 11.4551 5.38164C14.8486 5.38164 17.6094 8.11114 17.6094 11.4551V12.1289C17.6094 12.872 17.0048 13.4766 16.2617 13.4766C15.5186 13.4766 14.9141 12.872 14.9141 12.1289C14.9141 11.7951 14.9141 9.11177 14.9141 8.75977C14.9141 8.38763 14.6124 8.08594 14.2402 8.08594C13.8681 8.08594 13.5664 8.38763 13.5664 8.75977V8.80249C12.9579 8.33849 12.2218 8.08594 11.4551 8.08594C9.59733 8.08594 8.08594 9.59733 8.08594 11.4551C8.08594 13.3128 9.59733 14.8242 11.4551 14.8242C12.4624 14.8242 13.3894 14.392 14.0486 13.6647C14.536 14.3648 15.346 14.8242 16.2617 14.8242C17.7479 14.8242 18.957 13.6151 18.957 12.1289V11.4551C18.957 7.35578 15.5524 4.04297 11.4551 4.04297ZM11.4551 13.4855C10.3404 13.4855 9.43359 12.5697 9.43359 11.4551C9.43359 10.3404 10.3404 9.42461 11.4551 9.42461C12.5996 9.42461 13.5664 10.3593 13.5664 11.4551C13.5664 12.5509 12.5996 13.4855 11.4551 13.4855Z" />
	</symbol>
	<symbol id="skype-contacts" viewBox="0 0 23 23">
		<path d="M13.1728 20.7474C12.6568 20.8352 12.13 20.8797 11.6069 20.8797C6.49427 20.8797 2.33497 16.7204 2.33497 11.608C2.33497 11.0271 2.38856 10.4478 2.49435 9.8863C2.52918 9.70148 2.49845 9.51028 2.40754 9.34562C1.98407 8.57891 1.76021 7.70933 1.76021 6.83113C1.7601 3.95625 4.09915 1.61752 6.97424 1.61752C7.42089 1.61752 7.783 1.25541 7.783 0.808762C7.783 0.36211 7.42089 0 6.97424 0C3.20725 0 0.142578 3.06434 0.142578 6.83102C0.142578 7.88424 0.388334 8.92819 0.855583 9.8683C0.763815 10.4394 0.717446 11.0231 0.717446 11.6079C0.717446 17.6122 5.60247 22.4972 11.6069 22.4972C12.2206 22.4972 12.8386 22.445 13.4439 22.3421C13.8843 22.2672 14.1805 21.8495 14.1057 21.4092C14.0307 20.9688 13.6133 20.6726 13.1728 20.7474Z" />
		<path d="M22.3275 13.5308C22.4402 12.8957 22.4973 12.25 22.4973 11.6079C22.4973 5.60321 17.6123 0.717966 11.608 0.717966C11.0426 0.717966 10.4736 0.761963 9.9167 0.84877C9.47533 0.917569 9.17339 1.33112 9.24219 1.77248C9.31099 2.21385 9.72464 2.5159 10.1659 2.44699C10.6405 2.37302 11.1257 2.33549 11.608 2.33549C16.7204 2.33549 20.8797 6.49511 20.8797 11.6079C20.8797 12.2296 20.817 12.8552 20.6933 13.4675C20.6591 13.6369 20.68 13.8129 20.753 13.9695C21.0757 14.6612 21.2392 15.4013 21.2392 16.1691C21.2392 19.0438 18.9003 21.3825 16.0254 21.3825C15.5788 21.3825 15.2167 21.7446 15.2167 22.1912C15.2167 22.6379 15.5788 23 16.0254 23C19.7922 23 22.8567 19.9357 22.8567 16.1691C22.8567 15.2533 22.6789 14.3671 22.3275 13.5308Z" />
		<path d="M15.7332 13.4458C15.7332 12.9632 15.6383 12.55 15.4517 12.2182C15.265 11.8862 15.0014 11.6078 14.6677 11.3896C14.3336 11.1735 13.9234 10.9861 13.4482 10.8346C12.9779 10.6835 12.439 10.5424 11.8471 10.4148C11.3783 10.3066 11.0358 10.223 10.8312 10.1657C10.6256 10.109 10.4215 10.0303 10.2238 9.93073C10.0244 9.83077 9.8655 9.70978 9.75076 9.57045C9.63559 9.42887 9.5793 9.26539 9.5793 9.07161C9.5793 8.75867 9.74418 8.49804 10.0839 8.27514C10.4183 8.05591 10.8648 7.94484 11.4109 7.94484C12.0082 7.94484 12.4296 8.04416 12.6994 8.24894C12.9654 8.45188 13.1967 8.73689 13.386 9.0976C13.5365 9.35629 13.6694 9.5326 13.795 9.64346C13.9508 9.78116 14.1807 9.8106 14.3461 9.8106C14.6108 9.8106 14.8345 9.71711 15.0113 9.53314C15.1882 9.34875 15.2777 9.13912 15.2777 8.91018C15.2777 8.6586 15.2056 8.39721 15.0635 8.13323C14.9221 7.8699 14.6938 7.61379 14.3855 7.37267C14.0774 7.13242 13.685 6.9368 13.2186 6.79123C12.7515 6.64716 12.1906 6.5734 11.5513 6.5734C10.75 6.5734 10.0435 6.68414 9.45206 6.90337C8.86048 7.12174 8.40153 7.43942 8.0887 7.84725C7.77609 8.2553 7.61725 8.72816 7.61725 9.25223C7.61725 9.80262 7.76746 10.2697 8.06368 10.6409C8.36001 11.0117 8.76644 11.3082 9.27144 11.5229C9.77869 11.7386 10.4147 11.9289 11.1614 12.0887C11.7169 12.2048 12.1701 12.3171 12.5094 12.4226C12.8431 12.5262 13.1201 12.6792 13.3322 12.8773C13.5436 13.0757 13.651 13.3372 13.651 13.6542C13.651 14.0606 13.4576 14.3894 13.0602 14.6611C12.6686 14.9279 12.1519 15.0632 11.5258 15.0632C11.0704 15.0632 10.6971 14.9961 10.4173 14.8635C10.1377 14.7312 9.91726 14.5602 9.76241 14.3556C9.60863 14.152 9.46317 13.8947 9.32956 13.5891C9.22097 13.3337 9.08758 13.1375 8.9338 13.0073C8.78003 12.8771 8.58916 12.8108 8.36627 12.8108C8.08795 12.8108 7.86516 12.8933 7.68572 13.0626C7.50812 13.229 7.41797 13.4321 7.41797 13.6666C7.41797 14.0701 7.56797 14.4907 7.86344 14.9176C8.16009 15.345 8.55056 15.6912 9.02428 15.9468C9.69275 16.3013 10.5518 16.4806 11.5793 16.4806C12.4356 16.4806 13.1874 16.3491 13.8137 16.0892C14.4389 15.8291 14.9203 15.4646 15.2445 15.0057C15.5686 14.5469 15.7332 14.0222 15.7332 13.4458Z" />
	</symbol>
	<symbol id="time-contacts" viewBox="0 0 23 23">
		<path d="M22.082 7.02345C20.8693 4.19637 18.8087 2.14032 15.9581 0.924511C14.5333 0.316853 13.0406 0.00646591 11.4811 0.00646591C9.92191 0.00646591 8.44021 0.313922 7.01699 0.924511C4.18991 2.13708 2.12017 4.19182 0.905418 7.02345C0.296707 8.44209 0 9.92833 0 11.4875C0 13.047 0.296707 14.5456 0.905418 15.9645C2.12017 18.7961 4.19017 20.8632 7.01699 22.0761C8.44047 22.6867 9.92187 22.9938 11.4811 22.9938C13.0403 22.9938 14.5333 22.6834 15.9578 22.0761C18.8085 20.8602 20.8691 18.7913 22.082 15.9645C22.6925 14.541 23 13.047 23 11.4875C23 9.92833 22.6928 8.4469 22.082 7.02345ZM20.2462 16.5681C19.3434 18.1163 18.1067 19.3445 16.5491 20.2526C15.0009 21.1554 13.3046 21.6106 11.4814 21.6106C10.1108 21.6106 8.80291 21.3467 7.55783 20.8058C6.31279 20.2652 5.2378 19.5546 4.33854 18.6556C3.43929 17.7563 2.72355 16.6709 2.18834 15.4237C1.65472 14.181 1.39612 12.8584 1.39612 11.4876C1.39612 9.66409 1.84413 7.97638 2.74181 6.43248C3.64268 4.88295 4.87968 3.65343 6.42628 2.74797C7.97262 1.84256 9.65793 1.3897 11.4811 1.3897C13.3046 1.3897 15.0006 1.84522 16.5488 2.74797C18.1064 3.6561 19.3405 4.88558 20.2459 6.43245C21.1513 7.97904 21.6039 9.66409 21.6039 11.4875C21.6039 13.311 21.1543 15.0102 20.2462 16.5681Z" />
		<path d="M12.2101 11.3868V4.87281C12.2101 4.48301 11.8705 4.16861 11.4807 4.16861C11.1161 4.16861 10.7891 4.48301 10.7891 4.87281V11.4874C10.7891 11.5 10.8143 11.5504 10.8143 11.588C10.7891 11.8144 10.8521 12.003 11.0029 12.1541L14.7631 15.914C15.0147 16.1656 15.4799 16.1656 15.7313 15.914C16.0204 15.6248 16.0014 15.2052 15.7313 14.9331L12.2101 11.3868Z" />
	</symbol>
	<symbol id="address-contacts" viewBox="0 0 23 28">
		<path d="M11.0154 0C4.94149 0 0 4.94149 0 11.0153C0 13.0045 0.513295 15.1162 1.52556 17.2916C2.32487 19.0093 3.43633 20.7724 4.82927 22.5321C7.19056 25.5151 9.51865 27.437 9.61659 27.5174C10.0088 27.8391 10.5121 28 11.0154 28C11.5188 28 12.0221 27.8391 12.4143 27.5174C12.5122 27.437 14.8403 25.5151 17.2016 22.5321C18.5944 20.7725 19.706 19.0094 20.5053 17.2916C21.5175 15.1162 22.0308 13.0046 22.0308 11.0153C22.0307 4.94149 17.0892 0 11.0154 0ZM16.2241 21.7255C13.9466 24.6074 11.6336 26.519 11.6107 26.5378C11.2935 26.798 10.7372 26.798 10.4202 26.5379C10.3971 26.519 8.0842 24.6074 5.80664 21.7255C3.73569 19.105 1.26694 15.1198 1.26694 11.0153C1.26689 5.64001 5.64001 1.26689 11.0153 1.26689C16.3907 1.26689 20.7638 5.64001 20.7638 11.0153C20.7638 15.1197 18.2951 19.105 16.2241 21.7255Z" />
		<path d="M11.0148 5.15869C7.78549 5.15869 5.1582 7.78598 5.1582 11.0154C5.1582 14.2447 7.78549 16.872 11.0148 16.872C14.2442 16.872 16.8715 14.2447 16.8715 11.0154C16.8714 7.78598 14.2441 5.15869 11.0148 5.15869ZM11.0148 15.6051C8.48401 15.6051 6.42509 13.5461 6.42509 11.0153C6.42509 8.4845 8.48401 6.42552 11.0148 6.42552C13.5456 6.42552 15.6046 8.4845 15.6046 11.0153C15.6046 13.5461 13.5455 15.6051 11.0148 15.6051Z" />
	</symbol>




</svg>